<svg xmlns="http://www.w3.org/2000/svg" viewBox="0 0 512 512">
  <defs>
    <linearGradient id="bg" x1="72" y1="52" x2="440" y2="468" gradientUnits="userSpaceOnUse">
      <stop stop-color="#FFF7FB"/>
      <stop offset="0.46" stop-color="#FFD8E5"/>
      <stop offset="1" stop-color="#FFACC2"/>
    </linearGradient>
    <linearGradient id="screen" x1="164" y1="183" x2="365" y2="365" gradientUnits="userSpaceOnUse">
      <stop stop-color="#FF91AD"/>
      <stop offset="1" stop-color="#FF5F88"/>
    </linearGradient>
  </defs>
  <rect x="16" y="16" width="480" height="480" rx="116" fill="url(#bg)"/>
  <path d="M151 196L165 118C167 107 180 103 188 111L236 158H276L324 111C332 103 345 107 347 118L361 196Z" fill="#FF789B"/>
  <path d="M170 169L178 132L213 167ZM342 169L334 132L299 167Z" fill="#FFD6E2"/>
  <rect x="111" y="163" width="290" height="238" rx="82" fill="#FFFFFF"/>
  <rect x="145" y="197" width="222" height="155" rx="53" fill="url(#screen)"/>
  <path d="M229 233C229 223 240 217 249 223L300 257C308 262 308 274 300 279L249 313C240 319 229 313 229 303Z" fill="#FFFFFF"/>
  <path d="M411 121S382 158 382 177C382 194 395 207 411 207S440 194 440 177C440 158 411 121 411 121Z" fill="#68C5F2"/>
  <path d="M101 102V142M81 122H121" stroke="#FF85A2" stroke-width="10" stroke-linecap="round"/>
</svg>
